<?xml version="1.0" encoding="iso-8859-1"?>
<!-- Uploaded to: SVG Repo, www.svgrepo.com, Generator: SVG Repo Mixer Tools -->
<svg version="1.1" id="Layer_1" xmlns="http://www.w3.org/2000/svg" xmlns:xlink="http://www.w3.org/1999/xlink" 
	 viewBox="0 0 512 512" xml:space="preserve">
<polygon style="fill:#C6C3CB;" points="429.109,72.447 512,72.447 512,472.992 140.019,472.992 70.359,472.992 0,472.992 0,72.447 
	355.965,72.447 "/>
<path style="opacity:0.34;fill:#77757E;enable-background:new    ;" d="M447.866,72.447v159.175
	c0,97.885-79.352,177.237-177.237,177.237H75.886H6.226H0v64.134h70.359h69.66H512V72.447H447.866z"/>
<polygon style="fill:#CD2A00;" points="100.729,134.342 100.729,110.413 123.717,110.413 123.717,136.366 123.717,199.189 
	123.717,304.764 100.729,304.764 100.729,199.189 "/>
<circle style="fill:#FF5023;" cx="112.222" cy="167.781" r="33.437"/>
<circle style="fill:#77757E;" cx="88.649" cy="386.582" r="34.457"/>
<polygon style="fill:#CD2A00;" points="315.458,134.341 315.458,110.413 292.47,110.413 292.47,134.341 292.47,199.188 
	292.47,304.764 315.458,304.764 315.458,199.188 "/>
<circle style="fill:#FF5023;" cx="303.961" cy="167.781" r="33.437"/>
<polygon style="fill:#CD2A00;" points="196.6,205.613 196.6,110.413 219.587,110.413 219.587,205.613 219.587,270.45 
	219.587,304.764 196.6,304.764 196.6,271.679 "/>
<circle style="fill:#FF5023;" cx="208.091" cy="239.043" r="33.437"/>
<polygon style="fill:#CD2A00;" points="388.339,270.45 388.339,304.764 411.327,304.764 411.327,270.45 411.327,205.613 
	411.327,110.413 388.339,110.413 388.339,205.613 "/>
<circle style="fill:#FF5023;" cx="399.83" cy="239.043" r="33.437"/>
<path style="fill:#57545C;" d="M88.646,386.942c-4.328,0-7.837-3.508-7.837-7.837v-26.977c0-4.329,3.509-7.837,7.837-7.837
	s7.837,3.508,7.837,7.837v26.977C96.483,383.434,92.974,386.942,88.646,386.942z"/>
<circle style="fill:#77757E;" cx="312.424" cy="386.582" r="34.457"/>
<path style="fill:#57545C;" d="M312.428,386.942c-4.328,0-7.837-3.508-7.837-7.837v-26.977c0-4.329,3.509-7.837,7.837-7.837
	c4.328,0,7.837,3.508,7.837,7.837v26.977C320.264,383.434,316.756,386.942,312.428,386.942z"/>
<circle style="fill:#77757E;" cx="433.633" cy="386.582" r="34.457"/>
<path style="fill:#57545C;" d="M434.449,386.987c-0.281,0-0.565-0.016-0.851-0.046c-4.303-0.465-7.415-4.331-6.95-8.634
	l2.896-26.822c0.465-4.302,4.331-7.414,8.633-6.95c4.303,0.465,7.415,4.331,6.95,8.634l-2.896,26.821
	C441.796,384.007,438.399,386.987,434.449,386.987z"/>
<circle style="fill:#77757E;" cx="198.186" cy="386.582" r="34.457"/>
<path style="fill:#57545C;" d="M204.959,391.241c-2.942,0-5.762-1.666-7.097-4.505c-1.842-3.916-0.16-8.585,3.756-10.427
	l24.413-11.48c3.917-1.843,8.585-0.159,10.427,3.757c1.842,3.916,0.16,8.585-3.756,10.427l-24.413,11.48
	C207.211,391.001,206.075,391.241,204.959,391.241z"/>
<g>
	<polyline style="fill:#77757E;" points="55.732,39.011 55.732,72.447 142.109,72.447 142.109,39.011 108.673,39.011 	"/>
	<rect x="209.335" y="39.008" style="fill:#77757E;" width="43.186" height="33.437"/>
</g>
</svg>